# xmcd
#
# Track frame offsets: 
#        150
#        19472
#        36527
#        53660
#
# Disc length: 971 seconds
#
# Revision: 3
# Processed by: cddbd v1.5.2PL0 Copyright (c) Steve Scherf et al.
# Submitted via: ExactAudioCopy v1.3
#
DISCID=3203c904
DTITLE=flow-war - flow-war 見つめていたい
DYEAR=2004
DGENRE=Anime
TTITLE0=見つめていたい
TTITLE1=Gold Finger
TTITLE2=三日月が笑っている
TTITLE3=満園庄太郎・豊田稔 - 見つめていたい-Instrumental-
EXTD=
EXTT0=
EXTT1=
EXTT2=
EXTT3=
PLAYORDER=
